<?xml version="1.0" encoding="UTF-8"?>
<svg xmlns="http://www.w3.org/2000/svg" xmlns:xlink="http://www.w3.org/1999/xlink" width="924.210819pt" height="1000pt" viewBox="0 0 924.210819 1000" version="1.1">
<g id="surface1">
<path style=" stroke:none;fill-rule:nonzero;fill:rgb(0%,0%,0%);fill-opacity:1;" d="M 740.625 814.71875 L 740.742188 831.613281 L 899.804688 826.707031 L 899.738281 817.40625 Z M 740.625 814.71875 "/>
<path style=" stroke:none;fill-rule:nonzero;fill:rgb(0%,0%,0%);fill-opacity:1;" d="M 748.910156 825.101562 L 732.464844 821.226562 L 700.523438 977.136719 L 707.914062 978.878906 Z M 748.910156 825.101562 "/>
<path style=" stroke:none;fill-rule:nonzero;fill:rgb(0%,0%,0%);fill-opacity:1;" d="M 611.589844 761.632812 L 601.75 789.277344 L 737.851562 831.125 L 743.519531 815.207031 Z M 611.589844 761.632812 "/>
<path style=" stroke:none;fill-rule:nonzero;fill:rgb(0%,0%,0%);fill-opacity:1;" d="M 617.027344 785.847656 L 596.316406 765.0625 L 455.960938 916.851562 L 464.746094 925.667969 Z M 617.027344 785.847656 "/>
<path style=" stroke:none;fill-rule:nonzero;fill:rgb(0%,0%,0%);fill-opacity:1;" d="M 591.640625 630.757812 L 609.398438 664.015625 L 791.082031 550.359375 L 787.144531 542.988281 Z M 591.640625 630.757812 "/>
<path style=" stroke:none;fill-rule:nonzero;fill:rgb(0%,0%,0%);fill-opacity:1;" d="M 619.347656 646.484375 L 581.691406 648.292969 L 592.015625 776.160156 L 621.324219 774.753906 Z M 619.347656 646.484375 "/>
<path style=" stroke:none;fill-rule:nonzero;fill:rgb(0%,0%,0%);fill-opacity:1;" d="M 257.128906 734.53125 L 243.078125 736.039062 L 261.878906 877.09375 L 268.648438 876.367188 Z M 257.128906 734.53125 "/>
<path style=" stroke:none;fill-rule:nonzero;fill:rgb(0%,0%,0%);fill-opacity:1;" d="M 250.933594 742.300781 L 249.277344 728.265625 L 108.390625 748.335938 L 109.25 755.609375 Z M 250.933594 742.300781 "/>
<path style=" stroke:none;fill-rule:nonzero;fill:rgb(0%,0%,0%);fill-opacity:1;" d="M 128.285156 476.839844 L 117.964844 466.410156 L 19.375 569.039062 L 24.605469 574.324219 Z M 128.285156 476.839844 "/>
<path style=" stroke:none;fill-rule:nonzero;fill:rgb(0%,0%,0%);fill-opacity:1;" d="M 117.96875 476.839844 L 128.285156 466.410156 L 24.535156 369.011719 L 19.445312 374.15625 Z M 117.96875 476.839844 "/>
<path style=" stroke:none;fill-rule:nonzero;fill:rgb(0%,0%,0%);fill-opacity:1;" d="M 272.1875 569.835938 L 243.414062 568.503906 L 243.046875 734.957031 L 257.164062 735.609375 Z M 272.1875 569.835938 "/>
<path style=" stroke:none;fill-rule:nonzero;fill:rgb(0%,0%,0%);fill-opacity:1;" d="M 249.351562 580.832031 L 266.25 557.503906 L 127.433594 465.679688 L 118.828125 477.5625 Z M 249.351562 580.832031 "/>
<path style=" stroke:none;fill-rule:nonzero;fill:rgb(0%,0%,0%);fill-opacity:1;" d="M 447.707031 550.355469 L 422.976562 612.09375 L 593.507812 664.890625 L 607.527344 629.890625 Z M 447.707031 550.355469 "/>
<path style=" stroke:none;fill-rule:nonzero;fill:rgb(0%,0%,0%);fill-opacity:1;" d="M 433.089844 614.398438 L 437.59375 548.046875 L 258.773438 554.800781 L 256.824219 583.539062 Z M 433.089844 614.398438 "/>
<path style=" stroke:none;fill-rule:nonzero;fill:rgb(0%,0%,0%);fill-opacity:1;" d="M 381.476562 148.882812 L 389.132812 136.84375 L 267.132812 63.582031 L 263.394531 69.460938 Z M 381.476562 148.882812 "/>
<path style=" stroke:none;fill-rule:nonzero;fill:rgb(0%,0%,0%);fill-opacity:1;" d="M 379.246094 139.101562 L 391.367188 146.628906 L 463.457031 23.921875 L 457.253906 20.070312 Z M 379.246094 139.101562 "/>
<path style=" stroke:none;fill-rule:nonzero;fill:rgb(0%,0%,0%);fill-opacity:1;" d="M 362.234375 281.449219 L 363.382812 256.695312 L 196.9375 256.125 L 196.449219 266.628906 Z M 362.234375 281.449219 "/>
<path style=" stroke:none;fill-rule:nonzero;fill:rgb(0%,0%,0%);fill-opacity:1;" d="M 350.609375 266.898438 L 375.007812 271.246094 L 392.328125 144.113281 L 378.28125 141.609375 Z M 350.609375 266.898438 "/>
<path style=" stroke:none;fill-rule:nonzero;fill:rgb(0%,0%,0%);fill-opacity:1;" d="M 664.402344 208.644531 L 676.800781 207.316406 L 658.9375 66.144531 L 651.945312 66.894531 Z M 664.402344 208.644531 "/>
<path style=" stroke:none;fill-rule:nonzero;fill:rgb(0%,0%,0%);fill-opacity:1;" d="M 669.871094 201.789062 L 671.332031 214.171875 L 812.210938 193.992188 L 811.574219 188.59375 Z M 669.871094 201.789062 "/>
<path style=" stroke:none;fill-rule:nonzero;fill:rgb(0%,0%,0%);fill-opacity:1;" d="M 625.945312 328.617188 L 646.285156 334.296875 L 676.605469 209.65625 L 664.59375 206.300781 Z M 625.945312 328.617188 "/>
<path style=" stroke:none;fill-rule:nonzero;fill:rgb(0%,0%,0%);fill-opacity:1;" d="M 640.25 321.742188 L 631.976562 341.175781 L 787.417969 400.574219 L 790.804688 392.613281 Z M 640.25 321.742188 "/>
<path style=" stroke:none;fill-rule:nonzero;fill:rgb(0%,0%,0%);fill-opacity:1;" d="M 471.492188 380.328125 L 499.234375 343.757812 L 370.296875 259.199219 L 355.320312 278.941406 Z M 471.492188 380.328125 "/>
<path style=" stroke:none;fill-rule:nonzero;fill:rgb(0%,0%,0%);fill-opacity:1;" d="M 480.800781 339.550781 L 489.925781 384.535156 L 638.214844 341.808594 L 634.015625 321.109375 Z M 480.800781 339.550781 "/>
<path style=" stroke:none;fill-rule:nonzero;fill:rgb(0%,0%,0%);fill-opacity:1;" d="M 515.148438 484.128906 L 405.558594 459.121094 L 402.921875 573.824219 L 467.761719 588.621094 Z M 515.148438 484.128906 "/>
<path style=" stroke:none;fill-rule:nonzero;fill:rgb(0%,0%,0%);fill-opacity:1;" d="M 405.558594 459.117188 L 515.148438 484.128906 L 507.738281 367.148438 L 462.988281 356.933594 Z M 405.558594 459.117188 "/>
<path style=" stroke:none;fill-rule:nonzero;fill:rgb(100%,100%,100%);fill-opacity:1;" d="M 812.328125 546.671875 C 812.328125 533.851562 801.933594 523.457031 789.113281 523.457031 C 776.292969 523.457031 765.898438 533.851562 765.898438 546.671875 C 765.898438 559.492188 776.292969 569.886719 789.113281 569.886719 C 801.933594 569.886719 812.328125 559.492188 812.328125 546.671875 Z M 812.328125 546.671875 "/>
<path style=" stroke:none;fill-rule:nonzero;fill:rgb(0%,0%,0%);fill-opacity:1;" d="M 764.328125 557.421875 Z M 772.015625 536.855469 C 771.085938 536.855469 768.617188 537.285156 768.617188 539.574219 C 768.617188 540.253906 768.472656 541.433594 767.222656 541.433594 C 766.363281 541.433594 766.007812 540.71875 766.007812 540.21875 C 766.007812 539.039062 767.511719 535.605469 772.769531 535.605469 C 774.640625 535.605469 775.886719 536.210938 776.667969 537 C 777.539062 537.878906 777.789062 538.757812 777.789062 539.828125 C 777.789062 541.714844 776.964844 543.203125 774.023438 544.582031 L 774.058594 544.652344 C 776.167969 545.011719 779.101562 546.40625 779.101562 550.304688 C 779.101562 555.027344 775.308594 557.78125 771.054688 557.78125 C 768.910156 557.78125 765.902344 556.816406 765.902344 555.382812 C 765.902344 554.808594 766.652344 554.132812 767.40625 554.132812 C 768.121094 554.132812 768.585938 554.5625 768.945312 555.0625 C 769.375 555.707031 769.695312 556.527344 771.519531 556.527344 C 772.769531 556.527344 775.953125 555.5625 775.953125 550.804688 C 775.953125 546.761719 773.304688 546.191406 771.265625 546.191406 C 770.800781 546.191406 770.15625 546.191406 769.546875 546.261719 L 769.367188 545.117188 C 772.910156 544.613281 774.988281 541.878906 774.988281 540.085938 C 774.988281 537.785156 773.5625 536.855469 772.015625 536.855469 Z M 780.960938 557.421875 Z M 787.039062 538.285156 C 785.894531 538.285156 784.714844 538.535156 783.925781 541.398438 C 783.53125 541.445312 783.171875 541.402344 782.78125 541.292969 C 783.066406 539.433594 783.460938 537.285156 783.496094 535.570312 C 783.496094 535.464844 783.53125 535.464844 783.640625 535.464844 C 784.285156 535.609375 784.214844 535.964844 785.429688 535.964844 L 792.796875 535.964844 C 794.15625 535.964844 794.941406 535.75 795.550781 535.570312 L 796.125 536 C 792.117188 545.765625 790.152344 551.703125 788.113281 557.785156 L 785.679688 557.890625 L 785.394531 557.640625 C 787.828125 552.203125 790.652344 545.226562 793.441406 538.289062 L 787.039062 538.289062 Z M 797.59375 557.421875 Z M 799.773438 540.679688 C 799.773438 538.535156 802.242188 535.601562 806.210938 535.601562 C 809.109375 535.601562 812.257812 537.175781 812.257812 541.039062 C 812.257812 543.757812 810.71875 545.332031 808.679688 547.296875 L 805.066406 550.765625 C 804.886719 550.945312 802.417969 553.375 802.417969 555.09375 L 808.785156 555.09375 C 810.074219 555.09375 810.679688 554.199219 811.289062 551.660156 C 811.648438 551.589844 812.113281 551.660156 812.328125 551.839844 C 812.292969 552.914062 811.933594 555.59375 811.46875 557.492188 C 811.46875 557.492188 809.824219 557.421875 808.679688 557.421875 L 802.421875 557.421875 C 801.277344 557.421875 799.453125 557.492188 799.453125 557.492188 C 799.453125 555.382812 800.027344 553.664062 803.53125 550.085938 L 806.179688 547.476562 C 808.289062 545.332031 809.113281 543.46875 809.113281 541.179688 C 809.113281 537.746094 807.289062 536.851562 806 536.851562 C 803.390625 536.851562 802.457031 538.140625 802.457031 539.035156 C 802.457031 539.320312 802.671875 539.644531 802.742188 539.894531 C 802.8125 540.144531 802.886719 540.359375 802.886719 540.644531 C 802.886719 541.433594 801.8125 542.074219 801.207031 542.074219 C 800.457031 542.074219 799.777344 541.429688 799.777344 540.679688 Z M 799.773438 540.679688 "/>
<path style=" stroke:none;fill-rule:nonzero;fill:rgb(100%,100%,100%);fill-opacity:1;" d="M 924.210938 822.058594 C 924.210938 808.5625 913.269531 797.621094 899.773438 797.621094 C 886.277344 797.621094 875.335938 808.5625 875.335938 822.058594 C 875.335938 835.554688 886.277344 846.496094 899.773438 846.496094 C 913.269531 846.496094 924.210938 835.554688 924.210938 822.058594 Z M 924.210938 822.058594 "/>
<path style=" stroke:none;fill-rule:nonzero;fill:rgb(0%,0%,0%);fill-opacity:1;" d="M 874.320312 833.085938 Z M 884.15625 814.691406 C 881.652344 818.109375 879.085938 822.160156 877.226562 825.140625 L 884.15625 825.140625 Z M 884.15625 814.691406 Z M 889.921875 825.140625 C 890.320312 825.140625 890.464844 825.359375 890.464844 825.722656 C 890.464844 826.15625 889.921875 826.847656 889.414062 826.847656 L 886.910156 826.847656 L 886.910156 830.1875 C 886.910156 831.894531 887.671875 831.820312 889.449219 831.964844 C 889.667969 832.183594 889.667969 832.945312 889.449219 833.164062 C 888.289062 833.128906 886.925781 833.089844 885.496094 833.089844 C 883.828125 833.089844 882.375 833.125 881.214844 833.164062 C 880.996094 832.945312 880.996094 832.183594 881.214844 831.964844 C 882.773438 831.855469 884.152344 831.855469 884.152344 830.1875 L 884.152344 826.847656 L 876.75 826.847656 C 875.660156 826.847656 875.445312 825.867188 875.335938 825.324219 C 878.65625 820.136719 882.882812 814.167969 885.167969 811.355469 C 885.300781 811.191406 885.496094 810.957031 885.75 810.957031 L 886.910156 810.957031 L 886.984375 811.03125 C 886.921875 811.3125 886.910156 812.738281 886.910156 814.550781 L 886.910156 825.144531 L 889.921875 825.144531 Z M 891.195312 833.085938 Z M 901.644531 828.660156 C 901.644531 831.671875 902.261719 831.851562 904.800781 831.960938 C 905.019531 832.179688 905.019531 832.941406 904.800781 833.160156 C 902.988281 833.125 902.101562 833.085938 900.375 833.085938 C 898.410156 833.085938 897.109375 833.121094 895.332031 833.160156 C 895.113281 832.941406 895.113281 832.179688 895.332031 831.960938 C 897.871094 831.851562 898.851562 831.671875 898.851562 828.660156 L 898.851562 816.832031 C 898.851562 815.597656 898.722656 814.726562 898.125 814.726562 C 897.4375 814.726562 896.621094 814.945312 894.96875 815.632812 C 894.640625 815.410156 894.484375 815.066406 894.425781 814.652344 C 897.617188 813.164062 899.53125 812.269531 901.539062 811.023438 C 901.667969 811.023438 901.757812 811.03125 901.757812 811.203125 C 901.695312 811.675781 901.648438 813.886719 901.648438 816.066406 L 901.648438 828.65625 Z M 908.066406 833.085938 Z M 917.898438 814.691406 C 915.394531 818.109375 912.828125 822.160156 910.96875 825.140625 L 917.898438 825.140625 Z M 917.898438 814.691406 Z M 923.667969 825.140625 C 924.066406 825.140625 924.210938 825.359375 924.210938 825.722656 C 924.210938 826.15625 923.667969 826.847656 923.160156 826.847656 L 920.65625 826.847656 L 920.65625 830.1875 C 920.65625 831.894531 921.417969 831.820312 923.195312 831.964844 C 923.414062 832.183594 923.414062 832.945312 923.195312 833.164062 C 922.035156 833.128906 920.671875 833.089844 919.242188 833.089844 C 917.574219 833.089844 916.121094 833.125 914.960938 833.164062 C 914.742188 832.945312 914.742188 832.183594 914.960938 831.964844 C 916.519531 831.855469 917.898438 831.855469 917.898438 830.1875 L 917.898438 826.847656 L 910.496094 826.847656 C 909.40625 826.847656 909.191406 825.867188 909.082031 825.324219 C 912.402344 820.136719 916.628906 814.167969 918.914062 811.355469 C 919.046875 811.191406 919.242188 810.957031 919.496094 810.957031 L 920.65625 810.957031 L 920.730469 811.03125 C 920.667969 811.3125 920.65625 812.738281 920.65625 814.550781 L 920.65625 825.144531 L 923.667969 825.144531 Z M 923.667969 825.140625 "/>
<path style=" stroke:none;fill-rule:nonzero;fill:rgb(100%,100%,100%);fill-opacity:1;" d="M 726.207031 978.007812 C 726.207031 965.863281 716.359375 956.015625 704.214844 956.015625 C 692.070312 956.015625 682.222656 965.863281 682.222656 978.007812 C 682.222656 990.152344 692.070312 1000 704.214844 1000 C 716.359375 1000 726.207031 990.152344 726.207031 978.007812 Z M 726.207031 978.007812 "/>
<path style=" stroke:none;fill-rule:nonzero;fill:rgb(0%,0%,0%);fill-opacity:1;" d="M 680.738281 988.117188 Z M 687.988281 968.738281 C 687.113281 968.738281 684.785156 969.144531 684.785156 971.300781 C 684.785156 971.941406 684.648438 973.054688 683.46875 973.054688 C 682.660156 973.054688 682.324219 972.378906 682.324219 971.910156 C 682.324219 970.796875 683.738281 967.5625 688.695312 967.5625 C 690.457031 967.5625 691.632812 968.132812 692.371094 968.878906 C 693.191406 969.707031 693.425781 970.535156 693.425781 971.546875 C 693.425781 973.324219 692.652344 974.726562 689.875 976.027344 L 689.910156 976.09375 C 691.898438 976.429688 694.664062 977.746094 694.664062 981.417969 C 694.664062 985.867188 691.089844 988.460938 687.082031 988.460938 C 685.058594 988.460938 682.226562 987.550781 682.226562 986.203125 C 682.226562 985.664062 682.933594 985.023438 683.640625 985.023438 C 684.316406 985.023438 684.753906 985.429688 685.089844 985.898438 C 685.496094 986.503906 685.796875 987.28125 687.515625 987.28125 C 688.695312 987.28125 691.695312 986.371094 691.695312 981.886719 C 691.695312 978.078125 689.199219 977.539062 687.28125 977.539062 C 686.84375 977.539062 686.238281 977.539062 685.664062 977.605469 L 685.496094 976.527344 C 688.835938 976.050781 690.792969 973.476562 690.792969 971.785156 C 690.792969 969.617188 689.449219 968.742188 687.992188 968.742188 Z M 696.414062 988.117188 Z M 703.660156 968.738281 C 702.785156 968.738281 700.457031 969.144531 700.457031 971.300781 C 700.457031 971.941406 700.320312 973.054688 699.140625 973.054688 C 698.332031 973.054688 697.996094 972.378906 697.996094 971.910156 C 697.996094 970.796875 699.410156 967.5625 704.367188 967.5625 C 706.128906 967.5625 707.304688 968.132812 708.042969 968.878906 C 708.863281 969.707031 709.097656 970.535156 709.097656 971.546875 C 709.097656 973.324219 708.324219 974.726562 705.546875 976.027344 L 705.582031 976.09375 C 707.570312 976.429688 710.335938 977.746094 710.335938 981.417969 C 710.335938 985.867188 706.761719 988.460938 702.753906 988.460938 C 700.730469 988.460938 697.898438 987.550781 697.898438 986.203125 C 697.898438 985.664062 698.605469 985.023438 699.3125 985.023438 C 699.988281 985.023438 700.425781 985.429688 700.761719 985.898438 C 701.167969 986.503906 701.46875 987.28125 703.1875 987.28125 C 704.367188 987.28125 707.367188 986.371094 707.367188 981.886719 C 707.367188 978.078125 704.871094 977.539062 702.953125 977.539062 C 702.515625 977.539062 701.910156 977.539062 701.335938 977.605469 L 701.167969 976.527344 C 704.507812 976.050781 706.464844 973.476562 706.464844 971.785156 C 706.464844 969.617188 705.121094 968.742188 703.664062 968.742188 Z M 712.085938 988.117188 Z M 719.972656 968.738281 C 717.949219 968.738281 716.871094 970.019531 716.871094 971.570312 C 716.871094 972.613281 717.105469 973.726562 719.230469 975.109375 L 720.273438 975.75 C 721.183594 975.074219 722.96875 973.558594 722.96875 971.738281 C 722.96875 970.1875 722.160156 968.738281 719.96875 968.738281 Z M 719.972656 968.738281 Z M 725.332031 971.773438 C 725.332031 973.929688 722.769531 975.683594 721.1875 976.457031 L 723.582031 977.90625 C 725.371094 978.992188 726.210938 980.703125 726.210938 982.660156 C 726.210938 985.222656 724.054688 988.457031 719.636719 988.457031 C 716.0625 988.457031 713.636719 986.636719 713.636719 983.199219 C 713.636719 981.882812 714.210938 980.367188 715.589844 979.15625 C 716.433594 978.414062 717.324219 977.824219 718.304688 977.300781 L 717.445312 976.761719 C 715.394531 975.472656 714.480469 974.097656 714.480469 972.210938 C 714.480469 969.617188 716.703125 967.558594 720.144531 967.558594 C 723.449219 967.558594 725.335938 969.34375 725.335938 971.773438 Z M 725.332031 971.773438 Z M 719.703125 987.277344 C 721.21875 987.277344 723.746094 986.703125 723.746094 983.332031 C 723.746094 981.714844 722.902344 980.128906 720.8125 978.847656 L 719.226562 977.902344 C 716.328125 979.824219 715.890625 982.183594 715.890625 983.195312 C 715.890625 986.230469 718.183594 987.273438 719.699219 987.273438 Z M 719.703125 987.277344 "/>
<path style=" stroke:none;fill-rule:nonzero;fill:rgb(0%,0%,0%);fill-opacity:1;" d="M 749.132812 823.164062 C 749.132812 818.5 745.351562 814.714844 740.683594 814.714844 C 736.019531 814.714844 732.234375 818.496094 732.234375 823.164062 C 732.234375 827.828125 736.015625 831.613281 740.683594 831.613281 C 745.347656 831.613281 749.132812 827.832031 749.132812 823.164062 Z M 749.132812 823.164062 "/>
<path style=" stroke:none;fill-rule:nonzero;fill:rgb(100%,100%,100%);fill-opacity:1;" d="M 488.453125 921.257812 C 488.453125 905.738281 475.871094 893.15625 460.351562 893.15625 C 444.832031 893.15625 432.25 905.738281 432.25 921.257812 C 432.25 936.777344 444.832031 949.359375 460.351562 949.359375 C 475.871094 949.359375 488.453125 936.777344 488.453125 921.257812 Z M 488.453125 921.257812 "/>
<path style=" stroke:none;fill-rule:nonzero;fill:rgb(0%,0%,0%);fill-opacity:1;" d="M 429.953125 934.023438 Z M 443.527344 925.980469 C 443.527344 921.34375 441.359375 919.511719 438.59375 919.511719 C 437.0625 919.511719 435.445312 919.683594 433.191406 920.53125 L 434.636719 908.277344 C 436.125 908.40625 437.65625 908.488281 439.230469 908.488281 C 441.484375 908.488281 443.78125 908.277344 446.207031 908.019531 L 446.503906 908.191406 L 445.824219 911.085938 C 444.078125 911.257812 442.632812 911.339844 441.355469 911.339844 C 439.3125 911.339844 437.953125 911.128906 436.378906 910.957031 L 435.527344 918.0625 C 436.292969 917.765625 437.867188 917.382812 439.695312 917.382812 C 444.460938 917.382812 447.3125 921.085938 447.3125 925.210938 C 447.3125 930.570312 443.570312 934.484375 438.292969 934.484375 C 435.867188 934.484375 432.25 933.039062 432.25 931.292969 C 432.25 930.441406 433.058594 929.71875 433.867188 929.71875 C 434.761719 929.71875 435.484375 930.355469 436.035156 931.082031 C 436.671875 931.933594 437.226562 932.996094 438.84375 932.996094 C 441.398438 932.996094 443.523438 930.019531 443.523438 925.976562 Z M 449.738281 934.023438 Z M 463.308594 925.980469 C 463.308594 921.34375 461.140625 919.511719 458.375 919.511719 C 456.84375 919.511719 455.226562 919.683594 452.972656 920.53125 L 454.417969 908.277344 C 455.90625 908.40625 457.4375 908.488281 459.011719 908.488281 C 461.265625 908.488281 463.5625 908.277344 465.988281 908.019531 L 466.285156 908.191406 L 465.605469 911.085938 C 463.859375 911.257812 462.414062 911.339844 461.136719 911.339844 C 459.09375 911.339844 457.734375 911.128906 456.160156 910.957031 L 455.308594 918.0625 C 456.074219 917.765625 457.648438 917.382812 459.476562 917.382812 C 464.242188 917.382812 467.09375 921.085938 467.09375 925.210938 C 467.09375 930.570312 463.351562 934.484375 458.074219 934.484375 C 455.648438 934.484375 452.03125 933.039062 452.03125 931.292969 C 452.03125 930.441406 452.839844 929.71875 453.648438 929.71875 C 454.542969 929.71875 455.265625 930.355469 455.816406 931.082031 C 456.453125 931.933594 457.007812 932.996094 458.625 932.996094 C 461.179688 932.996094 463.304688 930.019531 463.304688 925.976562 Z M 469.523438 934.023438 Z M 481.050781 912.449219 C 478.113281 916.457031 475.105469 921.207031 472.925781 924.703125 L 481.050781 924.703125 Z M 481.050781 912.449219 Z M 487.816406 924.703125 C 488.285156 924.703125 488.453125 924.957031 488.453125 925.382812 C 488.453125 925.894531 487.816406 926.703125 487.21875 926.703125 L 484.28125 926.703125 L 484.28125 930.617188 C 484.28125 932.617188 485.175781 932.53125 487.257812 932.703125 C 487.511719 932.957031 487.511719 933.851562 487.257812 934.105469 C 485.894531 934.0625 484.296875 934.019531 482.621094 934.019531 C 480.664062 934.019531 478.960938 934.0625 477.601562 934.105469 C 477.347656 933.851562 477.347656 932.957031 477.601562 932.703125 C 479.429688 932.574219 481.046875 932.574219 481.046875 930.617188 L 481.046875 926.703125 L 472.367188 926.703125 C 471.089844 926.703125 470.835938 925.554688 470.707031 924.917969 C 474.601562 918.832031 479.558594 911.835938 482.238281 908.539062 C 482.394531 908.347656 482.621094 908.070312 482.917969 908.070312 L 484.28125 908.070312 L 484.367188 908.15625 C 484.292969 908.488281 484.28125 910.15625 484.28125 912.285156 L 484.28125 924.707031 L 487.8125 924.707031 Z M 487.816406 924.703125 "/>
<path style=" stroke:none;fill-rule:nonzero;fill:rgb(0%,0%,0%);fill-opacity:1;" d="M 621.34375 775.453125 C 621.34375 767.351562 614.773438 760.78125 606.671875 760.78125 C 598.570312 760.78125 592 767.351562 592 775.453125 C 592 783.554688 598.570312 790.125 606.671875 790.125 C 614.773438 790.125 621.34375 783.554688 621.34375 775.453125 Z M 621.34375 775.453125 "/>
<path style=" stroke:none;fill-rule:nonzero;fill:rgb(0%,0%,0%);fill-opacity:1;" d="M 619.371094 647.386719 C 619.371094 636.976562 610.929688 628.535156 600.519531 628.535156 C 590.109375 628.535156 581.667969 636.976562 581.667969 647.386719 C 581.667969 657.796875 590.109375 666.238281 600.519531 666.238281 C 610.929688 666.238281 619.371094 657.796875 619.371094 647.386719 Z M 619.371094 647.386719 "/>
<path style=" stroke:none;fill-rule:nonzero;fill:rgb(100%,100%,100%);fill-opacity:1;" d="M 286.035156 876.730469 C 286.035156 865.257812 276.734375 855.960938 265.265625 855.960938 C 253.792969 855.960938 244.496094 865.261719 244.496094 876.730469 C 244.496094 888.203125 253.796875 897.5 265.265625 897.5 C 276.738281 897.5 286.035156 888.199219 286.035156 876.730469 Z M 286.035156 876.730469 "/>
<path style=" stroke:none;fill-rule:nonzero;fill:rgb(0%,0%,0%);fill-opacity:1;" d="M 243.085938 886.324219 Z M 249.960938 867.9375 C 249.128906 867.9375 246.921875 868.320312 246.921875 870.367188 C 246.921875 870.976562 246.792969 872.03125 245.675781 872.03125 C 244.910156 872.03125 244.589844 871.390625 244.589844 870.945312 C 244.589844 869.890625 245.933594 866.820312 250.632812 866.820312 C 252.304688 866.820312 253.421875 867.359375 254.117188 868.066406 C 254.894531 868.851562 255.117188 869.636719 255.117188 870.597656 C 255.117188 872.28125 254.382812 873.613281 251.75 874.847656 L 251.78125 874.910156 C 253.667969 875.230469 256.289062 876.476562 256.289062 879.964844 C 256.289062 884.1875 252.898438 886.648438 249.09375 886.648438 C 247.175781 886.648438 244.488281 885.785156 244.488281 884.503906 C 244.488281 883.992188 245.160156 883.382812 245.832031 883.382812 C 246.472656 883.382812 246.886719 883.765625 247.207031 884.214844 C 247.589844 884.789062 247.878906 885.527344 249.507812 885.527344 C 250.628906 885.527344 253.472656 884.664062 253.472656 880.410156 C 253.472656 876.796875 251.105469 876.285156 249.285156 876.285156 C 248.871094 876.285156 248.292969 876.285156 247.75 876.347656 L 247.589844 875.324219 C 250.757812 874.875 252.613281 872.429688 252.613281 870.824219 C 252.613281 868.769531 251.335938 867.9375 249.957031 867.9375 Z M 257.953125 886.324219 Z M 265.375 867.9375 C 263.9375 867.9375 261.984375 869.410156 261.984375 877.277344 C 261.984375 880.058594 262.304688 885.527344 265.277344 885.527344 C 265.851562 885.527344 267.421875 885.238281 268.125 882.617188 C 268.574219 880.984375 268.667969 878.972656 268.667969 876.03125 C 268.667969 871.746094 267.804688 869.316406 266.8125 868.484375 C 266.429688 868.132812 265.917969 867.941406 265.375 867.941406 Z M 265.375 867.9375 Z M 265.246094 886.644531 C 264.007812 886.644531 262.910156 886.210938 262.003906 885.300781 C 260.253906 883.558594 259.203125 880.332031 259.203125 876.921875 C 259.203125 870.589844 262.210938 866.816406 265.375 866.816406 C 267.101562 866.816406 268.4375 867.785156 269.277344 868.894531 C 270.683594 870.75 271.453125 873.46875 271.453125 876.632812 C 271.453125 884.148438 267.710938 886.640625 265.25 886.640625 Z M 272.824219 886.324219 Z M 279.703125 867.9375 C 278.871094 867.9375 276.664062 868.320312 276.664062 870.367188 C 276.664062 870.976562 276.535156 872.03125 275.417969 872.03125 C 274.652344 872.03125 274.332031 871.390625 274.332031 870.945312 C 274.332031 869.890625 275.675781 866.820312 280.375 866.820312 C 282.046875 866.820312 283.164062 867.359375 283.859375 868.066406 C 284.636719 868.851562 284.859375 869.636719 284.859375 870.597656 C 284.859375 872.28125 284.125 873.613281 281.492188 874.847656 L 281.523438 874.910156 C 283.410156 875.230469 286.03125 876.476562 286.03125 879.964844 C 286.03125 884.1875 282.640625 886.648438 278.835938 886.648438 C 276.917969 886.648438 274.230469 885.785156 274.230469 884.503906 C 274.230469 883.992188 274.902344 883.382812 275.574219 883.382812 C 276.214844 883.382812 276.628906 883.765625 276.949219 884.214844 C 277.332031 884.789062 277.621094 885.527344 279.25 885.527344 C 280.371094 885.527344 283.214844 884.664062 283.214844 880.410156 C 283.214844 876.796875 280.847656 876.285156 279.027344 876.285156 C 278.613281 876.285156 278.035156 876.285156 277.492188 876.347656 L 277.332031 875.324219 C 280.5 874.875 282.355469 872.429688 282.355469 870.824219 C 282.355469 868.769531 281.078125 867.9375 279.699219 867.9375 Z M 279.703125 867.9375 "/>
<path style=" stroke:none;fill-rule:nonzero;fill:rgb(100%,100%,100%);fill-opacity:1;" d="M 130.808594 751.972656 C 130.808594 739.828125 120.960938 729.980469 108.816406 729.980469 C 96.671875 729.980469 86.824219 739.828125 86.824219 751.972656 C 86.824219 764.117188 96.671875 773.964844 108.816406 773.964844 C 120.960938 773.964844 130.808594 764.117188 130.808594 751.972656 Z M 130.808594 751.972656 "/>
<path style=" stroke:none;fill-rule:nonzero;fill:rgb(0%,0%,0%);fill-opacity:1;" d="M 85.34375 762.070312 Z M 92.578125 742.71875 C 91.703125 742.71875 89.382812 743.121094 89.382812 745.277344 C 89.382812 745.917969 89.25 747.027344 88.070312 747.027344 C 87.261719 747.027344 86.925781 746.355469 86.925781 745.882812 C 86.925781 744.773438 88.339844 741.542969 93.285156 741.542969 C 95.046875 741.542969 96.21875 742.113281 96.953125 742.855469 C 97.769531 743.683594 98.007812 744.507812 98.007812 745.515625 C 98.007812 747.289062 97.234375 748.6875 94.464844 749.988281 L 94.5 750.054688 C 96.484375 750.390625 99.246094 751.703125 99.246094 755.371094 C 99.246094 759.8125 95.679688 762.40625 91.675781 762.40625 C 89.65625 762.40625 86.828125 761.496094 86.828125 760.152344 C 86.828125 759.613281 87.535156 758.972656 88.242188 758.972656 C 88.914062 758.972656 89.351562 759.375 89.6875 759.847656 C 90.089844 760.453125 90.394531 761.226562 92.109375 761.226562 C 93.289062 761.226562 96.28125 760.316406 96.28125 755.84375 C 96.28125 752.039062 93.789062 751.503906 91.871094 751.503906 C 91.433594 751.503906 90.828125 751.503906 90.253906 751.570312 L 90.085938 750.492188 C 93.421875 750.019531 95.371094 747.445312 95.371094 745.757812 C 95.371094 743.59375 94.027344 742.71875 92.574219 742.71875 Z M 100.992188 762.070312 Z M 103.042969 746.320312 C 103.042969 744.300781 105.363281 741.542969 109.101562 741.542969 C 111.828125 741.542969 114.789062 743.023438 114.789062 746.660156 C 114.789062 749.21875 113.34375 750.699219 111.421875 752.550781 L 108.023438 755.816406 C 107.855469 755.984375 105.53125 758.273438 105.53125 759.886719 L 111.523438 759.886719 C 112.734375 759.886719 113.308594 759.046875 113.878906 756.65625 C 114.214844 756.589844 114.652344 756.65625 114.855469 756.824219 C 114.820312 757.832031 114.484375 760.359375 114.046875 762.140625 C 114.046875 762.140625 112.5 762.074219 111.421875 762.074219 L 105.53125 762.074219 C 104.453125 762.074219 102.738281 762.140625 102.738281 762.140625 C 102.738281 760.15625 103.277344 758.539062 106.574219 755.175781 L 109.066406 752.71875 C 111.050781 750.699219 111.824219 748.949219 111.824219 746.796875 C 111.824219 743.566406 110.109375 742.726562 108.894531 742.726562 C 106.4375 742.726562 105.5625 743.9375 105.5625 744.78125 C 105.5625 745.050781 105.765625 745.351562 105.832031 745.589844 C 105.898438 745.824219 105.964844 746.027344 105.964844 746.296875 C 105.964844 747.039062 104.957031 747.644531 104.382812 747.644531 C 103.675781 747.644531 103.035156 747.039062 103.035156 746.332031 Z M 116.640625 762.070312 Z M 121.191406 751.738281 C 120.992188 752.707031 120.914062 753.605469 120.914062 754.363281 C 120.914062 760.117188 122.832031 761.261719 124.953125 761.261719 C 126.601562 761.261719 128.015625 759.578125 128.015625 755.878906 C 128.015625 754.195312 127.273438 750.964844 123.976562 750.964844 C 123.390625 750.964844 122.292969 751.011719 121.191406 751.738281 Z M 121.191406 751.738281 Z M 121.496094 750.515625 C 122.5 750.054688 123.808594 749.785156 124.683594 749.785156 C 129.261719 749.785156 130.808594 752.375 130.808594 755.269531 C 130.808594 758.164062 128.992188 762.4375 124.582031 762.4375 C 121.992188 762.4375 118.121094 761.089844 118.121094 754.257812 C 118.121094 751.597656 119.164062 748.535156 121.25 746.113281 C 123.132812 743.925781 125.222656 742.511719 128.621094 741.503906 C 128.890625 741.671875 129.023438 741.976562 129.023438 742.378906 C 124.546875 744.054688 122.40625 747.453125 121.496094 750.511719 Z M 121.496094 750.515625 "/>
<path style=" stroke:none;fill-rule:nonzero;fill:rgb(0%,0%,0%);fill-opacity:1;" d="M 257.167969 735.285156 C 257.167969 731.382812 254.003906 728.21875 250.101562 728.21875 C 246.199219 728.21875 243.035156 731.382812 243.035156 735.285156 C 243.035156 739.1875 246.199219 742.351562 250.101562 742.351562 C 254.003906 742.351562 257.167969 739.1875 257.167969 735.285156 Z M 257.167969 735.285156 "/>
<path style=" stroke:none;fill-rule:nonzero;fill:rgb(100%,100%,100%);fill-opacity:1;" d="M 43.984375 571.683594 C 43.984375 559.539062 34.136719 549.691406 21.992188 549.691406 C 9.847656 549.691406 0 559.539062 0 571.683594 C 0 583.828125 9.847656 593.675781 21.992188 593.675781 C 34.136719 593.675781 43.984375 583.828125 43.984375 571.683594 Z M 43.984375 571.683594 "/>
<path style=" stroke:none;fill-rule:nonzero;fill:rgb(0%,0%,0%);fill-opacity:1;" d="M -1.53125 582.109375 Z M 5.945312 562.125 C 5.042969 562.125 2.644531 562.542969 2.644531 564.765625 C 2.644531 565.425781 2.503906 566.574219 1.289062 566.574219 C 0.453125 566.574219 0.105469 565.878906 0.105469 565.390625 C 0.105469 564.242188 1.566406 560.90625 6.675781 560.90625 C 8.492188 560.90625 9.707031 561.492188 10.464844 562.261719 C 11.308594 563.117188 11.554688 563.96875 11.554688 565.011719 C 11.554688 566.84375 10.753906 568.289062 7.894531 569.632812 L 7.929688 569.703125 C 9.980469 570.050781 12.832031 571.40625 12.832031 575.195312 C 12.832031 579.785156 9.148438 582.460938 5.011719 582.460938 C 2.925781 582.460938 0.0078125 581.523438 0.0078125 580.132812 C 0.0078125 579.578125 0.738281 578.917969 1.46875 578.917969 C 2.164062 578.917969 2.617188 579.335938 2.964844 579.820312 C 3.382812 580.445312 3.695312 581.246094 5.46875 581.246094 C 6.683594 581.246094 9.777344 580.308594 9.777344 575.683594 C 9.777344 571.757812 7.207031 571.199219 5.222656 571.199219 C 4.769531 571.199219 4.144531 571.199219 3.554688 571.269531 L 3.382812 570.15625 C 6.828125 569.667969 8.84375 567.011719 8.84375 565.265625 C 8.84375 563.03125 7.457031 562.128906 5.957031 562.128906 Z M 14.632812 582.109375 Z M 22.105469 562.125 C 21.203125 562.125 18.804688 562.542969 18.804688 564.765625 C 18.804688 565.425781 18.664062 566.574219 17.449219 566.574219 C 16.613281 566.574219 16.265625 565.878906 16.265625 565.390625 C 16.265625 564.242188 17.726562 560.90625 22.835938 560.90625 C 24.652344 560.90625 25.867188 561.492188 26.625 562.261719 C 27.46875 563.117188 27.714844 563.96875 27.714844 565.011719 C 27.714844 566.84375 26.914062 568.289062 24.054688 569.632812 L 24.089844 569.703125 C 26.140625 570.050781 28.992188 571.40625 28.992188 575.195312 C 28.992188 579.785156 25.308594 582.460938 21.171875 582.460938 C 19.085938 582.460938 16.167969 581.523438 16.167969 580.132812 C 16.167969 579.578125 16.898438 578.917969 17.628906 578.917969 C 18.324219 578.917969 18.777344 579.335938 19.125 579.820312 C 19.542969 580.445312 19.855469 581.246094 21.628906 581.246094 C 22.84375 581.246094 25.9375 580.308594 25.9375 575.683594 C 25.9375 571.757812 23.367188 571.199219 21.382812 571.199219 C 20.929688 571.199219 20.304688 571.199219 19.714844 571.269531 L 19.542969 570.15625 C 22.988281 569.667969 25.003906 567.011719 25.003906 565.265625 C 25.003906 563.03125 23.617188 562.128906 22.117188 562.128906 Z M 30.796875 582.109375 Z M 40.804688 577.871094 C 40.804688 580.757812 41.394531 580.929688 43.828125 581.035156 C 44.035156 581.242188 44.035156 581.972656 43.828125 582.183594 C 42.089844 582.148438 41.242188 582.113281 39.585938 582.113281 C 37.703125 582.113281 36.457031 582.148438 34.753906 582.183594 C 34.546875 581.976562 34.546875 581.246094 34.753906 581.035156 C 37.1875 580.929688 38.125 580.757812 38.125 577.871094 L 38.125 566.539062 C 38.125 565.355469 38.003906 564.523438 37.429688 564.523438 C 36.769531 564.523438 35.988281 564.730469 34.40625 565.390625 C 34.09375 565.179688 33.941406 564.847656 33.886719 564.453125 C 36.945312 563.027344 38.777344 562.167969 40.699219 560.976562 C 40.820312 560.976562 40.90625 560.984375 40.90625 561.148438 C 40.847656 561.601562 40.800781 563.71875 40.800781 565.804688 L 40.800781 577.867188 Z M 40.804688 577.871094 "/>
<path style=" stroke:none;fill-rule:nonzero;fill:rgb(100%,100%,100%);fill-opacity:1;" d="M 42.765625 371.582031 C 42.765625 360.109375 33.464844 350.8125 21.996094 350.8125 C 10.523438 350.8125 1.226562 360.113281 1.226562 371.582031 C 1.226562 383.054688 10.527344 392.351562 21.996094 392.351562 C 33.46875 392.351562 42.765625 383.050781 42.765625 371.582031 Z M 42.765625 371.582031 "/>
<path style=" stroke:none;fill-rule:nonzero;fill:rgb(0%,0%,0%);fill-opacity:1;" d="M -0.1875 381.183594 Z M 6.695312 362.78125 C 5.863281 362.78125 3.65625 363.164062 3.65625 365.214844 C 3.65625 365.824219 3.527344 366.878906 2.40625 366.878906 C 1.636719 366.878906 1.316406 366.238281 1.316406 365.789062 C 1.316406 364.734375 2.660156 361.660156 7.367188 361.660156 C 9.042969 361.660156 10.15625 362.199219 10.855469 362.910156 C 11.632812 363.699219 11.855469 364.480469 11.855469 365.441406 C 11.855469 367.128906 11.121094 368.460938 8.484375 369.695312 L 8.515625 369.757812 C 10.402344 370.078125 13.027344 371.324219 13.027344 374.816406 C 13.027344 379.042969 9.636719 381.503906 5.828125 381.503906 C 3.90625 381.503906 1.21875 380.640625 1.21875 379.359375 C 1.21875 378.847656 1.890625 378.238281 2.5625 378.238281 C 3.203125 378.238281 3.617188 378.621094 3.9375 379.070312 C 4.320312 379.644531 4.609375 380.382812 6.242188 380.382812 C 7.363281 380.382812 10.210938 379.519531 10.210938 375.261719 C 10.210938 371.644531 7.84375 371.132812 6.019531 371.132812 C 5.601562 371.132812 5.027344 371.132812 4.484375 371.195312 L 4.324219 370.171875 C 7.496094 369.71875 9.351562 367.277344 9.351562 365.667969 C 9.351562 363.609375 8.074219 362.777344 6.691406 362.777344 Z M 14.695312 381.183594 Z M 16.648438 366.203125 C 16.648438 364.28125 18.855469 361.660156 22.410156 361.660156 C 25.003906 361.660156 27.820312 363.070312 27.820312 366.523438 C 27.820312 368.957031 26.445312 370.363281 24.621094 372.125 L 21.386719 375.230469 C 21.226562 375.390625 19.019531 377.566406 19.019531 379.101562 L 24.714844 379.101562 C 25.867188 379.101562 26.410156 378.300781 26.957031 376.027344 C 27.277344 375.964844 27.691406 376.027344 27.886719 376.1875 C 27.855469 377.148438 27.535156 379.546875 27.117188 381.246094 C 27.117188 381.246094 25.644531 381.183594 24.621094 381.183594 L 19.019531 381.183594 C 17.996094 381.183594 16.363281 381.246094 16.363281 381.246094 C 16.363281 379.359375 16.875 377.820312 20.011719 374.621094 L 22.378906 372.285156 C 24.265625 370.363281 25.003906 368.699219 25.003906 366.652344 C 25.003906 363.578125 23.371094 362.78125 22.21875 362.78125 C 19.882812 362.78125 19.050781 363.933594 19.050781 364.734375 C 19.050781 364.992188 19.242188 365.277344 19.308594 365.503906 C 19.371094 365.726562 19.4375 365.921875 19.4375 366.175781 C 19.4375 366.882812 18.476562 367.457031 17.933594 367.457031 C 17.261719 367.457031 16.652344 366.882812 16.652344 366.207031 Z M 29.578125 381.183594 Z M 31.53125 366.203125 C 31.53125 364.28125 33.738281 361.660156 37.292969 361.660156 C 39.886719 361.660156 42.703125 363.070312 42.703125 366.523438 C 42.703125 368.957031 41.328125 370.363281 39.503906 372.125 L 36.269531 375.230469 C 36.109375 375.390625 33.902344 377.566406 33.902344 379.101562 L 39.597656 379.101562 C 40.75 379.101562 41.292969 378.300781 41.839844 376.027344 C 42.160156 375.964844 42.574219 376.027344 42.769531 376.1875 C 42.738281 377.148438 42.417969 379.546875 42 381.246094 C 42 381.246094 40.527344 381.183594 39.503906 381.183594 L 33.902344 381.183594 C 32.878906 381.183594 31.246094 381.246094 31.246094 381.246094 C 31.246094 379.359375 31.757812 377.820312 34.894531 374.621094 L 37.261719 372.285156 C 39.148438 370.363281 39.886719 368.699219 39.886719 366.652344 C 39.886719 363.578125 38.253906 362.78125 37.101562 362.78125 C 34.765625 362.78125 33.933594 363.933594 33.933594 364.734375 C 33.933594 364.992188 34.125 365.277344 34.191406 365.503906 C 34.253906 365.726562 34.320312 365.921875 34.320312 366.175781 C 34.320312 366.882812 33.359375 367.457031 32.816406 367.457031 C 32.144531 367.457031 31.535156 366.882812 31.535156 366.207031 Z M 31.53125 366.203125 "/>
<path style=" stroke:none;fill-rule:nonzero;fill:rgb(0%,0%,0%);fill-opacity:1;" d="M 130.464844 471.625 C 130.464844 467.574219 127.179688 464.289062 123.128906 464.289062 C 119.078125 464.289062 115.792969 467.574219 115.792969 471.625 C 115.792969 475.675781 119.078125 478.960938 123.128906 478.960938 C 127.179688 478.960938 130.464844 475.675781 130.464844 471.625 Z M 130.464844 471.625 "/>
<path style=" stroke:none;fill-rule:nonzero;fill:rgb(0%,0%,0%);fill-opacity:1;" d="M 272.203125 569.171875 C 272.203125 561.21875 265.753906 554.769531 257.800781 554.769531 C 249.847656 554.769531 243.398438 561.21875 243.398438 569.171875 C 243.398438 577.125 249.847656 583.574219 257.800781 583.574219 C 265.753906 583.574219 272.203125 577.125 272.203125 569.171875 Z M 272.203125 569.171875 "/>
<path style=" stroke:none;fill-rule:nonzero;fill:rgb(0%,0%,0%);fill-opacity:1;" d="M 468.59375 581.222656 C 468.59375 562.859375 453.707031 547.96875 435.339844 547.96875 C 416.976562 547.96875 402.085938 562.855469 402.085938 581.222656 C 402.085938 599.585938 416.972656 614.476562 435.339844 614.476562 C 453.703125 614.476562 468.59375 599.589844 468.59375 581.222656 Z M 468.59375 581.222656 "/>
<path style=" stroke:none;fill-rule:nonzero;fill:rgb(100%,100%,100%);fill-opacity:1;" d="M 222.351562 261.375 C 222.351562 247.203125 210.863281 235.714844 196.691406 235.714844 C 182.519531 235.714844 171.03125 247.203125 171.03125 261.375 C 171.03125 275.546875 182.519531 287.035156 196.691406 287.035156 C 210.863281 287.035156 222.351562 275.546875 222.351562 261.375 Z M 222.351562 261.375 "/>
<path style=" stroke:none;fill-rule:nonzero;fill:rgb(0%,0%,0%);fill-opacity:1;" d="M 169.949219 273.027344 Z M 180.476562 253.332031 C 177.796875 256.992188 175.050781 261.328125 173.058594 264.519531 L 180.476562 264.519531 Z M 180.476562 253.332031 Z M 186.652344 264.523438 C 187.078125 264.523438 187.234375 264.757812 187.234375 265.144531 C 187.234375 265.609375 186.652344 266.347656 186.109375 266.347656 L 183.429688 266.347656 L 183.429688 269.921875 C 183.429688 271.746094 184.246094 271.671875 186.148438 271.824219 C 186.382812 272.058594 186.382812 272.875 186.148438 273.105469 C 184.90625 273.066406 183.445312 273.027344 181.914062 273.027344 C 180.128906 273.027344 178.574219 273.066406 177.332031 273.105469 C 177.097656 272.871094 177.097656 272.054688 177.332031 271.824219 C 179.003906 271.707031 180.480469 271.707031 180.480469 269.921875 L 180.480469 266.347656 L 172.554688 266.347656 C 171.390625 266.347656 171.15625 265.296875 171.039062 264.714844 C 174.59375 259.160156 179.121094 252.769531 181.566406 249.757812 C 181.710938 249.582031 181.917969 249.332031 182.1875 249.332031 L 183.429688 249.332031 L 183.507812 249.410156 C 183.441406 249.714844 183.429688 251.234375 183.429688 253.179688 L 183.429688 264.523438 Z M 188.011719 273.027344 Z M 193.261719 261.101562 C 193.03125 262.21875 192.941406 263.257812 192.941406 264.132812 C 192.941406 270.777344 195.15625 272.097656 197.601562 272.097656 C 199.503906 272.097656 201.136719 270.15625 201.136719 265.882812 C 201.136719 263.941406 200.28125 260.210938 196.476562 260.210938 C 195.800781 260.210938 194.535156 260.265625 193.261719 261.105469 Z M 193.261719 261.101562 Z M 193.617188 259.691406 C 194.773438 259.160156 196.285156 258.847656 197.296875 258.847656 C 202.578125 258.847656 204.367188 261.839844 204.367188 265.179688 C 204.367188 268.519531 202.269531 273.453125 197.179688 273.453125 C 194.1875 273.453125 189.722656 271.898438 189.722656 264.011719 C 189.722656 260.941406 190.925781 257.40625 193.335938 254.609375 C 195.511719 252.085938 197.917969 250.453125 201.84375 249.289062 C 202.15625 249.484375 202.308594 249.832031 202.308594 250.300781 C 197.140625 252.234375 194.671875 256.160156 193.617188 259.691406 Z M 206.074219 273.027344 Z M 215.164062 250.691406 C 212.832031 250.691406 211.589844 252.167969 211.589844 253.953125 C 211.589844 255.15625 211.863281 256.4375 214.308594 258.03125 L 215.511719 258.769531 C 216.5625 257.992188 218.621094 256.246094 218.621094 254.148438 C 218.621094 252.363281 217.6875 250.691406 215.164062 250.691406 Z M 215.164062 250.691406 Z M 221.34375 254.1875 C 221.34375 256.671875 218.390625 258.695312 216.566406 259.585938 L 219.324219 261.257812 C 221.386719 262.507812 222.355469 264.480469 222.355469 266.734375 C 222.355469 269.6875 219.871094 273.417969 214.78125 273.417969 C 210.664062 273.417969 207.867188 271.320312 207.867188 267.359375 C 207.867188 265.84375 208.527344 264.097656 210.121094 262.699219 C 211.09375 261.84375 212.121094 261.164062 213.25 260.5625 L 212.257812 259.941406 C 209.890625 258.457031 208.839844 256.871094 208.839844 254.695312 C 208.839844 251.703125 211.402344 249.335938 215.367188 249.335938 C 219.175781 249.335938 221.347656 251.394531 221.347656 254.191406 Z M 221.34375 254.1875 Z M 214.855469 272.058594 C 216.605469 272.058594 219.515625 271.398438 219.515625 267.511719 C 219.515625 265.648438 218.542969 263.820312 216.136719 262.34375 L 214.3125 261.257812 C 210.972656 263.472656 210.464844 266.191406 210.464844 267.355469 C 210.464844 270.851562 213.105469 272.054688 214.855469 272.054688 Z M 214.855469 272.058594 "/>
<path style=" stroke:none;fill-rule:nonzero;fill:rgb(100%,100%,100%);fill-opacity:1;" d="M 286.035156 66.519531 C 286.035156 55.046875 276.734375 45.75 265.265625 45.75 C 253.792969 45.75 244.496094 55.050781 244.496094 66.519531 C 244.496094 77.992188 253.796875 87.289062 265.265625 87.289062 C 276.738281 87.289062 286.035156 77.988281 286.035156 66.519531 Z M 286.035156 66.519531 "/>
<path style=" stroke:none;fill-rule:nonzero;fill:rgb(0%,0%,0%);fill-opacity:1;" d="M 243.09375 76.046875 Z M 249.921875 57.785156 C 249.097656 57.785156 246.90625 58.167969 246.90625 60.199219 C 246.90625 60.800781 246.777344 61.851562 245.667969 61.851562 C 244.90625 61.851562 244.589844 61.214844 244.589844 60.773438 C 244.589844 59.726562 245.921875 56.675781 250.59375 56.675781 C 252.253906 56.675781 253.363281 57.210938 254.054688 57.914062 C 254.828125 58.695312 255.046875 59.472656 255.046875 60.425781 C 255.046875 62.097656 254.316406 63.421875 251.703125 64.648438 L 251.734375 64.710938 C 253.609375 65.027344 256.210938 66.265625 256.210938 69.730469 C 256.210938 73.921875 252.84375 76.367188 249.066406 76.367188 C 247.160156 76.367188 244.492188 75.507812 244.492188 74.238281 C 244.492188 73.730469 245.160156 73.125 245.824219 73.125 C 246.460938 73.125 246.871094 73.507812 247.191406 73.949219 C 247.574219 74.519531 247.859375 75.25 249.476562 75.25 C 250.589844 75.25 253.414062 74.390625 253.414062 70.167969 C 253.414062 66.578125 251.0625 66.070312 249.253906 66.070312 C 248.839844 66.070312 248.269531 66.070312 247.730469 66.132812 L 247.570312 65.117188 C 250.71875 64.667969 252.558594 62.242188 252.558594 60.648438 C 252.558594 58.605469 251.292969 57.78125 249.917969 57.78125 Z M 257.863281 76.046875 Z M 267.007812 72.171875 C 267.007812 74.808594 267.546875 74.964844 269.769531 75.0625 C 269.960938 75.253906 269.960938 75.921875 269.769531 76.109375 C 268.179688 76.078125 267.40625 76.046875 265.894531 76.046875 C 264.171875 76.046875 263.035156 76.078125 261.480469 76.109375 C 261.289062 75.917969 261.289062 75.25 261.480469 75.0625 C 263.703125 74.96875 264.5625 74.808594 264.5625 72.171875 L 264.5625 61.816406 C 264.5625 60.738281 264.453125 59.972656 263.925781 59.972656 C 263.324219 59.972656 262.609375 60.164062 261.164062 60.765625 C 260.878906 60.570312 260.738281 60.269531 260.6875 59.90625 C 263.480469 58.605469 265.15625 57.820312 266.914062 56.730469 C 267.023438 56.730469 267.105469 56.738281 267.105469 56.890625 C 267.050781 57.304688 267.011719 59.242188 267.011719 61.144531 L 267.011719 72.164062 Z M 272.628906 76.046875 Z M 280 57.785156 C 278.570312 57.785156 276.632812 59.246094 276.632812 67.058594 C 276.632812 69.820312 276.949219 75.253906 279.902344 75.253906 C 280.472656 75.253906 282.03125 74.96875 282.730469 72.363281 C 283.175781 70.742188 283.269531 68.742188 283.269531 65.820312 C 283.269531 61.566406 282.410156 59.152344 281.425781 58.324219 C 281.042969 57.976562 280.535156 57.785156 279.996094 57.785156 Z M 280 57.785156 Z M 279.871094 76.363281 C 278.640625 76.363281 277.550781 75.929688 276.652344 75.03125 C 274.914062 73.300781 273.871094 70.097656 273.871094 66.710938 C 273.871094 60.421875 276.855469 56.675781 280 56.675781 C 281.714844 56.675781 283.042969 57.636719 283.875 58.738281 C 285.273438 60.582031 286.035156 63.28125 286.035156 66.425781 C 286.035156 73.890625 282.320312 76.367188 279.875 76.367188 Z M 279.871094 76.363281 "/>
<path style=" stroke:none;fill-rule:nonzero;fill:rgb(100%,100%,100%);fill-opacity:1;" d="M 482.34375 21.992188 C 482.34375 9.847656 472.496094 0 460.351562 0 C 448.207031 0 438.359375 9.847656 438.359375 21.992188 C 438.359375 34.136719 448.207031 43.984375 460.351562 43.984375 C 472.496094 43.984375 482.34375 34.136719 482.34375 21.992188 Z M 482.34375 21.992188 "/>
<path style=" stroke:none;fill-rule:nonzero;fill:rgb(0%,0%,0%);fill-opacity:1;" d="M 436.863281 32.191406 Z M 444.171875 12.644531 C 443.289062 12.644531 440.941406 13.050781 440.941406 15.226562 C 440.941406 15.871094 440.804688 16.996094 439.617188 16.996094 C 438.800781 16.996094 438.460938 16.316406 438.460938 15.839844 C 438.460938 14.71875 439.886719 11.453125 444.886719 11.453125 C 446.664062 11.453125 447.851562 12.027344 448.59375 12.777344 C 449.417969 13.613281 449.65625 14.445312 449.65625 15.464844 C 449.65625 17.257812 448.875 18.671875 446.078125 19.980469 L 446.113281 20.046875 C 448.117188 20.386719 450.90625 21.710938 450.90625 25.417969 C 450.90625 29.90625 447.304688 32.523438 443.257812 32.523438 C 441.21875 32.523438 438.363281 31.605469 438.363281 30.246094 C 438.363281 29.703125 439.078125 29.054688 439.789062 29.054688 C 440.46875 29.054688 440.910156 29.460938 441.25 29.9375 C 441.65625 30.550781 441.964844 31.332031 443.699219 31.332031 C 444.890625 31.332031 447.914062 30.414062 447.914062 25.894531 C 447.914062 22.054688 445.398438 21.507812 443.460938 21.507812 C 443.019531 21.507812 442.40625 21.507812 441.828125 21.574219 L 441.65625 20.488281 C 445.023438 20.007812 446.996094 17.410156 446.996094 15.707031 C 446.996094 13.519531 445.640625 12.636719 444.171875 12.636719 Z M 452.671875 32.191406 Z M 454.742188 16.28125 C 454.742188 14.242188 457.085938 11.453125 460.859375 11.453125 C 463.613281 11.453125 466.605469 12.949219 466.605469 16.621094 C 466.605469 19.203125 465.144531 20.699219 463.207031 22.570312 L 459.773438 25.867188 C 459.601562 26.039062 457.257812 28.347656 457.257812 29.980469 L 463.308594 29.980469 C 464.53125 29.980469 465.109375 29.128906 465.6875 26.71875 C 466.027344 26.652344 466.46875 26.71875 466.671875 26.890625 C 466.636719 27.910156 466.296875 30.460938 465.855469 32.261719 C 465.855469 32.261719 464.292969 32.195312 463.203125 32.195312 L 457.253906 32.195312 C 456.167969 32.195312 454.433594 32.261719 454.433594 32.261719 C 454.433594 30.257812 454.976562 28.625 458.308594 25.226562 L 460.824219 22.746094 C 462.828125 20.707031 463.613281 18.9375 463.613281 16.761719 C 463.613281 13.5 461.878906 12.648438 460.65625 12.648438 C 458.175781 12.648438 457.292969 13.871094 457.292969 14.722656 C 457.292969 14.996094 457.496094 15.300781 457.566406 15.539062 C 457.632812 15.777344 457.703125 15.980469 457.703125 16.253906 C 457.703125 17.003906 456.683594 17.613281 456.105469 17.613281 C 455.390625 17.613281 454.746094 17 454.746094 16.289062 Z M 468.476562 32.191406 Z M 479.320312 25.765625 C 479.320312 22.058594 477.585938 20.597656 475.378906 20.597656 C 474.15625 20.597656 472.863281 20.734375 471.0625 21.414062 L 472.21875 11.625 C 473.410156 11.726562 474.632812 11.796875 475.890625 11.796875 C 477.691406 11.796875 479.527344 11.625 481.464844 11.421875 L 481.703125 11.558594 L 481.160156 13.871094 C 479.765625 14.007812 478.609375 14.074219 477.589844 14.074219 C 475.957031 14.074219 474.871094 13.902344 473.613281 13.769531 L 472.933594 19.445312 C 473.546875 19.207031 474.804688 18.902344 476.265625 18.902344 C 480.074219 18.902344 482.351562 21.859375 482.351562 25.15625 C 482.351562 29.4375 479.359375 32.566406 475.144531 32.566406 C 473.207031 32.566406 470.316406 31.410156 470.316406 30.015625 C 470.316406 29.335938 470.960938 28.757812 471.609375 28.757812 C 472.324219 28.757812 472.902344 29.269531 473.34375 29.84375 C 473.855469 30.523438 474.296875 31.375 475.585938 31.375 C 477.625 31.375 479.324219 28.996094 479.324219 25.765625 Z M 479.320312 25.765625 "/>
<path style=" stroke:none;fill-rule:nonzero;fill:rgb(0%,0%,0%);fill-opacity:1;" d="M 392.4375 142.863281 C 392.4375 138.921875 389.242188 135.730469 385.304688 135.730469 C 381.363281 135.730469 378.171875 138.925781 378.171875 142.863281 C 378.171875 146.804688 381.367188 149.996094 385.304688 149.996094 C 389.246094 149.996094 392.4375 146.800781 392.4375 142.863281 Z M 392.4375 142.863281 "/>
<path style=" stroke:none;fill-rule:nonzero;fill:rgb(0%,0%,0%);fill-opacity:1;" d="M 375.199219 269.070312 C 375.199219 262.226562 369.652344 256.679688 362.808594 256.679688 C 355.964844 256.679688 350.417969 262.226562 350.417969 269.070312 C 350.417969 275.914062 355.964844 281.460938 362.808594 281.460938 C 369.652344 281.460938 375.199219 275.914062 375.199219 269.070312 Z M 375.199219 269.070312 "/>
<path style=" stroke:none;fill-rule:nonzero;fill:rgb(100%,100%,100%);fill-opacity:1;" d="M 676.214844 66.519531 C 676.214844 55.046875 666.914062 45.75 655.445312 45.75 C 643.972656 45.75 634.675781 55.050781 634.675781 66.519531 C 634.675781 77.992188 643.976562 87.289062 655.445312 87.289062 C 666.917969 87.289062 676.214844 77.988281 676.214844 66.519531 Z M 676.214844 66.519531 "/>
<path style=" stroke:none;fill-rule:nonzero;fill:rgb(0%,0%,0%);fill-opacity:1;" d="M 633.265625 76.113281 Z M 640.140625 57.722656 C 639.308594 57.722656 637.101562 58.105469 637.101562 60.152344 C 637.101562 60.761719 636.972656 61.816406 635.855469 61.816406 C 635.089844 61.816406 634.769531 61.175781 634.769531 60.730469 C 634.769531 59.675781 636.113281 56.605469 640.8125 56.605469 C 642.484375 56.605469 643.601562 57.144531 644.296875 57.851562 C 645.074219 58.636719 645.296875 59.421875 645.296875 60.382812 C 645.296875 62.066406 644.5625 63.398438 641.929688 64.632812 L 641.960938 64.695312 C 643.847656 65.015625 646.46875 66.261719 646.46875 69.75 C 646.46875 73.972656 643.078125 76.433594 639.273438 76.433594 C 637.355469 76.433594 634.667969 75.570312 634.667969 74.289062 C 634.667969 73.777344 635.339844 73.167969 636.011719 73.167969 C 636.652344 73.167969 637.066406 73.550781 637.386719 74 C 637.769531 74.574219 638.058594 75.3125 639.6875 75.3125 C 640.808594 75.3125 643.652344 74.449219 643.652344 70.195312 C 643.652344 66.582031 641.285156 66.070312 639.464844 66.070312 C 639.050781 66.070312 638.472656 66.070312 637.929688 66.132812 L 637.769531 65.109375 C 640.9375 64.660156 642.792969 62.214844 642.792969 60.609375 C 642.792969 58.554688 641.515625 57.722656 640.136719 57.722656 Z M 648.136719 76.113281 Z M 657.347656 72.210938 C 657.347656 74.867188 657.890625 75.023438 660.128906 75.121094 C 660.320312 75.3125 660.320312 75.984375 660.128906 76.175781 C 658.53125 76.144531 657.75 76.113281 656.226562 76.113281 C 654.492188 76.113281 653.347656 76.144531 651.78125 76.175781 C 651.589844 75.984375 651.589844 75.3125 651.78125 75.121094 C 654.019531 75.023438 654.882812 74.867188 654.882812 72.210938 L 654.882812 61.785156 C 654.882812 60.699219 654.769531 59.929688 654.242188 59.929688 C 653.632812 59.929688 652.914062 60.121094 651.460938 60.730469 C 651.171875 60.535156 651.03125 60.230469 650.980469 59.867188 C 653.792969 58.554688 655.480469 57.765625 657.25 56.667969 C 657.363281 56.667969 657.441406 56.675781 657.441406 56.828125 C 657.386719 57.242188 657.34375 59.195312 657.34375 61.113281 L 657.34375 72.210938 Z M 663.007812 76.113281 Z M 669.882812 57.722656 C 669.050781 57.722656 666.84375 58.105469 666.84375 60.152344 C 666.84375 60.761719 666.714844 61.816406 665.597656 61.816406 C 664.832031 61.816406 664.511719 61.175781 664.511719 60.730469 C 664.511719 59.675781 665.855469 56.605469 670.554688 56.605469 C 672.226562 56.605469 673.34375 57.144531 674.039062 57.851562 C 674.816406 58.636719 675.039062 59.421875 675.039062 60.382812 C 675.039062 62.066406 674.304688 63.398438 671.671875 64.632812 L 671.703125 64.695312 C 673.589844 65.015625 676.210938 66.261719 676.210938 69.75 C 676.210938 73.972656 672.820312 76.433594 669.015625 76.433594 C 667.097656 76.433594 664.410156 75.570312 664.410156 74.289062 C 664.410156 73.777344 665.082031 73.167969 665.753906 73.167969 C 666.394531 73.167969 666.808594 73.550781 667.128906 74 C 667.511719 74.574219 667.800781 75.3125 669.429688 75.3125 C 670.550781 75.3125 673.394531 74.449219 673.394531 70.195312 C 673.394531 66.582031 671.027344 66.070312 669.207031 66.070312 C 668.792969 66.070312 668.214844 66.070312 667.671875 66.132812 L 667.511719 65.109375 C 670.679688 64.660156 672.535156 62.214844 672.535156 60.609375 C 672.535156 58.554688 671.257812 57.722656 669.878906 57.722656 Z M 669.882812 57.722656 "/>
<path style=" stroke:none;fill-rule:nonzero;fill:rgb(100%,100%,100%);fill-opacity:1;" d="M 830.21875 191.292969 C 830.21875 181.171875 822.011719 172.964844 811.890625 172.964844 C 801.769531 172.964844 793.5625 181.171875 793.5625 191.292969 C 793.5625 201.414062 801.769531 209.621094 811.890625 209.621094 C 822.011719 209.621094 830.21875 201.414062 830.21875 191.292969 Z M 830.21875 191.292969 "/>
<path style=" stroke:none;fill-rule:nonzero;fill:rgb(0%,0%,0%);fill-opacity:1;" d="M 792.089844 199.929688 Z M 793.820312 186.632812 C 793.820312 184.929688 795.78125 182.597656 798.933594 182.597656 C 801.234375 182.597656 803.734375 183.847656 803.734375 186.917969 C 803.734375 189.078125 802.511719 190.328125 800.894531 191.890625 L 798.023438 194.648438 C 797.882812 194.789062 795.921875 196.722656 795.921875 198.085938 L 800.980469 198.085938 C 802.003906 198.085938 802.488281 197.375 802.96875 195.359375 C 803.253906 195.300781 803.621094 195.359375 803.792969 195.5 C 803.765625 196.351562 803.480469 198.484375 803.109375 199.988281 C 803.109375 199.988281 801.800781 199.929688 800.894531 199.929688 L 795.921875 199.929688 C 795.011719 199.929688 793.5625 199.988281 793.5625 199.988281 C 793.5625 198.3125 794.015625 196.949219 796.800781 194.105469 L 798.902344 192.03125 C 800.578125 190.328125 801.230469 188.847656 801.230469 187.03125 C 801.230469 184.304688 799.78125 183.59375 798.757812 183.59375 C 796.683594 183.59375 795.945312 184.617188 795.945312 185.328125 C 795.945312 185.554688 796.117188 185.8125 796.171875 186.011719 C 796.230469 186.210938 796.285156 186.382812 796.285156 186.609375 C 796.285156 187.238281 795.433594 187.746094 794.949219 187.746094 C 794.351562 187.746094 793.8125 187.234375 793.8125 186.636719 Z M 805.300781 199.929688 Z M 813 185.523438 C 811.039062 188.199219 809.03125 191.371094 807.574219 193.707031 L 813 193.707031 Z M 813 185.523438 Z M 817.519531 193.707031 C 817.832031 193.707031 817.945312 193.878906 817.945312 194.160156 C 817.945312 194.5 817.519531 195.039062 817.121094 195.039062 L 815.160156 195.039062 L 815.160156 197.652344 C 815.160156 198.988281 815.757812 198.929688 817.148438 199.042969 C 817.320312 199.214844 817.320312 199.808594 817.148438 199.980469 C 816.238281 199.953125 815.171875 199.921875 814.050781 199.921875 C 812.742188 199.921875 811.605469 199.949219 810.699219 199.980469 C 810.527344 199.808594 810.527344 199.214844 810.699219 199.042969 C 811.921875 198.957031 813 198.957031 813 197.652344 L 813 195.039062 L 807.203125 195.039062 C 806.351562 195.039062 806.179688 194.273438 806.09375 193.84375 C 808.695312 189.78125 812.003906 185.105469 813.792969 182.902344 C 813.898438 182.773438 814.046875 182.589844 814.246094 182.589844 L 815.15625 182.589844 L 815.214844 182.648438 C 815.167969 182.871094 815.15625 183.984375 815.15625 185.40625 L 815.15625 193.703125 L 817.515625 193.703125 Z M 818.515625 199.929688 Z M 820.246094 186.632812 C 820.246094 184.929688 822.207031 182.597656 825.359375 182.597656 C 827.660156 182.597656 830.160156 183.847656 830.160156 186.917969 C 830.160156 189.078125 828.9375 190.328125 827.320312 191.890625 L 824.449219 194.648438 C 824.308594 194.789062 822.347656 196.722656 822.347656 198.085938 L 827.40625 198.085938 C 828.429688 198.085938 828.914062 197.375 829.394531 195.359375 C 829.679688 195.300781 830.046875 195.359375 830.21875 195.5 C 830.191406 196.351562 829.90625 198.484375 829.535156 199.988281 C 829.535156 199.988281 828.226562 199.929688 827.320312 199.929688 L 822.347656 199.929688 C 821.4375 199.929688 819.988281 199.988281 819.988281 199.988281 C 819.988281 198.3125 820.441406 196.949219 823.226562 194.105469 L 825.328125 192.03125 C 827.003906 190.328125 827.65625 188.847656 827.65625 187.03125 C 827.65625 184.304688 826.207031 183.59375 825.183594 183.59375 C 823.109375 183.59375 822.371094 184.617188 822.371094 185.328125 C 822.371094 185.554688 822.542969 185.8125 822.597656 186.011719 C 822.65625 186.210938 822.710938 186.382812 822.710938 186.609375 C 822.710938 187.238281 821.859375 187.746094 821.375 187.746094 C 820.777344 187.746094 820.238281 187.234375 820.238281 186.636719 Z M 820.246094 186.632812 "/>
<path style=" stroke:none;fill-rule:nonzero;fill:rgb(0%,0%,0%);fill-opacity:1;" d="M 676.835938 207.980469 C 676.835938 204.535156 674.042969 201.746094 670.601562 201.746094 C 667.15625 201.746094 664.367188 204.539062 664.367188 207.980469 C 664.367188 211.425781 667.160156 214.214844 670.601562 214.214844 C 674.046875 214.214844 676.835938 211.421875 676.835938 207.980469 Z M 676.835938 207.980469 "/>
<path style=" stroke:none;fill-rule:nonzero;fill:rgb(100%,100%,100%);fill-opacity:1;" d="M 812.328125 396.59375 C 812.328125 383.773438 801.933594 373.378906 789.113281 373.378906 C 776.292969 373.378906 765.898438 383.773438 765.898438 396.59375 C 765.898438 409.414062 776.292969 419.808594 789.113281 419.808594 C 801.933594 419.808594 812.328125 409.414062 812.328125 396.59375 Z M 812.328125 396.59375 "/>
<path style=" stroke:none;fill-rule:nonzero;fill:rgb(0%,0%,0%);fill-opacity:1;" d="M 764.320312 407.355469 Z M 772.035156 386.726562 C 771.101562 386.726562 768.625 387.15625 768.625 389.453125 C 768.625 390.136719 768.480469 391.320312 767.226562 391.320312 C 766.367188 391.320312 766.007812 390.601562 766.007812 390.101562 C 766.007812 388.917969 767.515625 385.472656 772.789062 385.472656 C 774.664062 385.472656 775.917969 386.078125 776.699219 386.871094 C 777.570312 387.753906 777.824219 388.632812 777.824219 389.710938 C 777.824219 391.601562 777 393.09375 774.046875 394.480469 L 774.082031 394.550781 C 776.199219 394.910156 779.140625 396.308594 779.140625 400.21875 C 779.140625 404.953125 775.335938 407.71875 771.066406 407.71875 C 768.914062 407.71875 765.898438 406.75 765.898438 405.316406 C 765.898438 404.742188 766.652344 404.0625 767.40625 404.0625 C 768.125 404.0625 768.589844 404.492188 768.949219 404.996094 C 769.378906 405.640625 769.703125 406.46875 771.53125 406.46875 C 772.785156 406.46875 775.980469 405.5 775.980469 400.726562 C 775.980469 396.671875 773.324219 396.097656 771.28125 396.097656 C 770.816406 396.097656 770.167969 396.097656 769.558594 396.167969 L 769.378906 395.019531 C 772.933594 394.511719 775.015625 391.773438 775.015625 389.972656 C 775.015625 387.664062 773.585938 386.734375 772.035156 386.734375 Z M 781.007812 407.355469 Z M 789.402344 386.726562 C 787.25 386.726562 786.101562 388.089844 786.101562 389.742188 C 786.101562 390.855469 786.351562 392.039062 788.613281 393.507812 L 789.726562 394.191406 C 790.695312 393.472656 792.597656 391.859375 792.597656 389.921875 C 792.597656 388.269531 791.738281 386.726562 789.402344 386.726562 Z M 789.402344 386.726562 Z M 795.105469 389.953125 C 795.105469 392.25 792.378906 394.117188 790.691406 394.941406 L 793.238281 396.484375 C 795.144531 397.640625 796.035156 399.460938 796.035156 401.542969 C 796.035156 404.269531 793.738281 407.714844 789.039062 407.714844 C 785.234375 407.714844 782.652344 405.777344 782.652344 402.117188 C 782.652344 400.71875 783.261719 399.101562 784.734375 397.8125 C 785.632812 397.023438 786.582031 396.394531 787.621094 395.839844 L 786.707031 395.265625 C 784.523438 393.894531 783.550781 392.429688 783.550781 390.421875 C 783.550781 387.660156 785.917969 385.46875 789.578125 385.46875 C 793.09375 385.46875 795.105469 387.371094 795.105469 389.953125 Z M 795.105469 389.953125 Z M 789.113281 406.460938 C 790.726562 406.460938 793.417969 405.851562 793.417969 402.261719 C 793.417969 400.539062 792.519531 398.851562 790.296875 397.488281 L 788.609375 396.484375 C 785.523438 398.53125 785.058594 401.042969 785.058594 402.117188 C 785.058594 405.347656 787.5 406.457031 789.113281 406.457031 Z M 797.691406 407.355469 Z M 809.136719 400.574219 C 809.136719 396.664062 807.308594 395.121094 804.972656 395.121094 C 803.679688 395.121094 802.316406 395.265625 800.414062 395.980469 L 801.632812 385.648438 C 802.886719 385.757812 804.179688 385.828125 805.507812 385.828125 C 807.410156 385.828125 809.347656 385.648438 811.390625 385.433594 L 811.640625 385.578125 L 811.066406 388.019531 C 809.59375 388.164062 808.375 388.234375 807.300781 388.234375 C 805.578125 388.234375 804.429688 388.054688 803.101562 387.910156 L 802.382812 393.902344 C 803.027344 393.652344 804.355469 393.328125 805.898438 393.328125 C 809.917969 393.328125 812.320312 396.449219 812.320312 399.929688 C 812.320312 404.449219 809.164062 407.75 804.714844 407.75 C 802.667969 407.75 799.621094 406.53125 799.621094 405.058594 C 799.621094 404.339844 800.304688 403.730469 800.984375 403.730469 C 801.738281 403.730469 802.347656 404.269531 802.8125 404.878906 C 803.351562 405.597656 803.816406 406.492188 805.179688 406.492188 C 807.332031 406.492188 809.125 403.980469 809.125 400.570312 Z M 809.136719 400.574219 "/>
<path style=" stroke:none;fill-rule:nonzero;fill:rgb(0%,0%,0%);fill-opacity:1;" d="M 646.675781 331.457031 C 646.675781 325.625 641.949219 320.898438 636.117188 320.898438 C 630.285156 320.898438 625.558594 325.625 625.558594 331.457031 C 625.558594 337.289062 630.285156 342.015625 636.117188 342.015625 C 641.949219 342.015625 646.675781 337.289062 646.675781 331.457031 Z M 646.675781 331.457031 "/>
<path style=" stroke:none;fill-rule:nonzero;fill:rgb(0%,0%,0%);fill-opacity:1;" d="M 508.316406 362.042969 C 508.316406 349.367188 498.039062 339.089844 485.363281 339.089844 C 472.6875 339.089844 462.410156 349.367188 462.410156 362.042969 C 462.410156 374.71875 472.6875 384.996094 485.363281 384.996094 C 498.039062 384.996094 508.316406 374.71875 508.316406 362.042969 Z M 508.316406 362.042969 "/>
<path style=" stroke:none;fill-rule:nonzero;fill:rgb(0%,0%,0%);fill-opacity:1;" d="M 516.558594 471.625 C 516.558594 440.585938 491.394531 415.421875 460.355469 415.421875 C 429.316406 415.421875 404.152344 440.585938 404.152344 471.625 C 404.152344 502.664062 429.316406 527.828125 460.355469 527.828125 C 491.394531 527.828125 516.558594 502.664062 516.558594 471.625 Z M 516.558594 471.625 "/>
</g>
</svg>
